<?xml version="1.0" encoding="UTF-8" standalone="no"?>
<!-- Created with Inkscape (http://www.inkscape.org/) -->

<svg
   version="1.1"
   id="svg1"
   width="151.81006mm"
   height="47.277531mm"
   viewBox="0 0 573.77029 178.68673"
   sodipodi:docname="icons8-soccer-ball-50.png"
   xmlns:inkscape="http://www.inkscape.org/namespaces/inkscape"
   xmlns:sodipodi="http://sodipodi.sourceforge.net/DTD/sodipodi-0.dtd"
   xmlns="http://www.w3.org/2000/svg"
   xmlns:svg="http://www.w3.org/2000/svg">
  <defs
     id="defs1">
    <rect
       x="193"
       y="163"
       width="329"
       height="115"
       id="rect4" />
  </defs>
  <sodipodi:namedview
     id="namedview1"
     pagecolor="#ffffff"
     bordercolor="#000000"
     borderopacity="0.25"
     inkscape:showpageshadow="2"
     inkscape:pageopacity="0.0"
     inkscape:pagecheckerboard="0"
     inkscape:deskcolor="#d1d1d1"
     inkscape:document-units="mm" />
  <g
     inkscape:groupmode="layer"
     inkscape:label="Image"
     id="g1"
     transform="translate(-127.01686,-228.99984)">
    <path
       id="text4"
       style="font-size:33.2384px;font-family:Counter-Strike;-inkscape-font-specification:'Counter-Strike, Normal';white-space:pre;shape-inside:url(#rect4);opacity:1;fill:#000000;fill-rule:evenodd;stroke-width:8.368"
       d="m 169.54777,168.99193 c -10.37816,0.0583 -18.2363,6.02917 -20.8862,15.87015 -2.82792,10.50209 3.29346,21.64385 14.11379,25.68927 8.6018,3.21597 19.78163,-1.04271 25.03221,-9.53533 2.42454,-3.92158 2.84914,-5.54263 2.84914,-10.87554 0,-5.33291 -0.4246,-6.95443 -2.84914,-10.87601 -1.76608,-2.85657 -4.60132,-5.69181 -7.45789,-7.45789 -3.933,-2.4316 -5.51648,-2.84437 -10.80191,-2.81465 z m 5.5594,2.61613 c 2.50552,0.038 5.36534,1.65844 8.40014,4.78956 2.55613,2.63725 2.85347,3.42068 2.07418,5.4704 -0.54218,1.42602 -2.13447,2.81926 -3.94191,3.44934 -4.17603,1.45577 -4.68256,1.35926 -8.17321,-1.55738 -2.58834,-2.16271 -3.06687,-3.19265 -3.05976,-6.58507 0.007,-3.35199 0.39325,-4.19698 2.31975,-5.07475 0.74975,-0.34161 1.54563,-0.50478 2.38081,-0.4921 z m -11.25954,0.001 c 0.83321,-0.0117 1.6272,0.15073 2.37335,0.4907 1.9446,0.88602 2.31137,1.71075 2.31137,5.19824 0,3.6155 -0.41328,4.46026 -3.23265,6.6107 -3.65847,2.79045 -4.53457,2.90408 -8.63455,1.11934 -4.33187,-1.88568 -4.74684,-4.99757 -1.15988,-8.69839 2.98833,-3.08317 5.84275,-4.68564 8.34236,-4.72059 z m 33.9389,12.43245 c -0.3767,0 -0.78706,0.0109 -1.23024,0.0331 -0.44318,0.0222 -0.85308,0.1219 -1.22978,0.29917 -0.35454,0.15512 -0.6647,0.41017 -0.9306,0.76471 -0.26591,0.35454 -0.3989,0.86419 -0.3989,1.52895 v 9.87178 h 0.43245 c 0.48749,0 0.96389,-0.0333 1.42923,-0.0997 0.46533,-0.0665 0.87523,-0.21086 1.22977,-0.43245 0.73125,-0.42102 1.09651,-1.2185 1.09651,-2.39292 v -1.99449 h 5.05239 v -2.62545 h -5.05239 v -2.32675 h 6.98023 c 0.8642,0 1.52915,-0.0446 1.99449,-0.13327 0.4875,-0.1108 0.91925,-0.27704 1.29595,-0.49862 0.33239,-0.22159 0.55419,-0.52036 0.66499,-0.89706 0.13295,-0.3767 0.19944,-0.74242 0.19944,-1.09697 z m 17.35018,0 c -0.50966,0 -0.99698,0.0551 -1.46232,0.1659 -0.44317,0.1108 -0.84215,0.28843 -1.19669,0.53218 -0.35454,0.22158 -0.64284,0.52081 -0.86443,0.89751 -0.19943,0.35455 -0.29871,0.77537 -0.29871,1.26287 v 2.09421 c 0,0.44318 0.0993,0.83076 0.29871,1.16314 0.22159,0.31022 0.50989,0.57621 0.86443,0.79779 0.35454,0.22159 0.75352,0.38783 1.19669,0.49863 0.46534,0.11079 0.94174,0.16589 1.42923,0.16589 h 8.90762 v 2.3603 h -12.69668 c 0,0.42102 0.11067,0.79767 0.33226,1.13006 0.24375,0.31022 0.54298,0.57574 0.89752,0.79732 0.3767,0.22159 0.79753,0.38783 1.26286,0.49863 0.4875,0.11079 0.98621,0.16636 1.49587,0.16636 h 8.87454 c 1.19658,0 2.16029,-0.21041 2.89154,-0.63143 0.73124,-0.44318 1.09696,-1.10813 1.09696,-1.99449 v -2.49264 c 0,-0.42102 -0.12159,-0.78675 -0.36534,-1.09697 -0.22159,-0.33238 -0.52082,-0.59837 -0.89752,-0.7978 -0.35454,-0.19943 -0.77584,-0.34334 -1.26333,-0.43198 -0.46534,-0.0886 -0.95266,-0.13281 -1.46231,-0.13281 h -8.57537 v -2.32675 h 12.56387 c 0,-0.93067 -0.36572,-1.59562 -1.09696,-1.99448 -0.70909,-0.42102 -1.66188,-0.63144 -2.85846,-0.63144 z m 17.94898,0 c -0.93067,0 -1.65119,0.16624 -2.16085,0.49863 -0.50965,0.31022 -0.76424,0.89728 -0.76424,1.76148 v 0.36581 h 6.41498 v 9.87178 h 1.22978 c 1.15226,0 1.93881,-0.19948 2.35983,-0.59834 0.42102,-0.39886 0.63143,-1.06382 0.63143,-1.99449 v -7.27895 h 2.92509 c 0.26591,0 0.58746,-0.0114 0.96416,-0.0336 0.39886,-0.0222 0.77551,-0.0887 1.13006,-0.19945 0.35454,-0.13295 0.65377,-0.33244 0.89751,-0.59834 0.26591,-0.28807 0.39844,-0.69797 0.39844,-1.22978 v -0.5648 z m 19.80973,0 c -0.50965,0 -0.99697,0.0551 -1.46231,0.1659 -0.44318,0.1108 -0.84215,0.27703 -1.19669,0.49862 -0.35455,0.22159 -0.63145,0.50989 -0.83088,0.86444 -0.19943,0.33238 -0.29918,0.74228 -0.29918,1.22977 v 9.73897 h 0.26609 c 0.53181,0 1.04146,-0.0556 1.52895,-0.16636 0.4875,-0.13295 0.90832,-0.31012 1.26287,-0.53171 0.3767,-0.24375 0.65361,-0.53205 0.83088,-0.86443 0.19943,-0.33238 0.29917,-0.79739 0.29917,-1.39568 v -1.9614 h 8.40947 v 4.91958 h 4.22104 v -12.4977 z m 17.94899,0 c -0.93068,0 -1.65073,0.16624 -2.16039,0.49863 -0.50965,0.31022 -0.7647,0.89728 -0.7647,1.76148 v 0.36581 h 6.41497 v 9.87178 h 1.22978 c 1.15227,0 1.93882,-0.19948 2.35983,-0.59834 0.42102,-0.39886 0.6319,-1.06382 0.6319,-1.99449 v -7.27895 h 2.92463 c 0.26591,0 0.58745,-0.0114 0.96416,-0.0336 0.39886,-0.0222 0.77551,-0.0887 1.13005,-0.19945 0.35454,-0.13295 0.65377,-0.33244 0.89752,-0.59834 0.26591,-0.28807 0.3989,-0.69797 0.3989,-1.22978 v -0.5648 z m -17.55009,2.62592 h 8.40947 v 2.32675 h -8.40947 z m -68.79489,0.0163 c 3.02292,0.0378 4.74529,1.59209 4.74529,4.41164 0,3.81176 -2.68916,10.20362 -4.7588,11.31126 -2.94775,1.57759 -4.51621,1.01994 -6.86887,-2.44232 -2.01368,-2.96338 -2.16296,-3.76289 -1.27498,-6.82599 1.37733,-4.75116 2.11119,-5.53147 5.86184,-6.2351 0.83093,-0.15588 1.59792,-0.22821 2.29552,-0.21949 z m -30.02449,9.4e-4 c 0.68556,-0.008 1.44241,0.0636 2.2685,0.21855 3.74935,0.70339 4.48467,1.4846 5.85904,6.22625 0.89373,3.08342 0.74206,3.82737 -1.39148,6.82599 -3.62342,5.09257 -7.31645,4.17918 -10.06517,-2.48891 -2.78165,-6.74797 -1.46975,-10.72391 3.32911,-10.78188 z m 14.99873,10.98692 c 3.97986,0 4.83412,0.35797 6.52636,2.73449 2.08682,2.93068 2.4341,5.39394 1.06574,7.55622 -0.90165,1.42481 -10.64981,2.39132 -13.24097,1.31273 -3.34341,-1.39173 -3.69217,-4.91608 -0.87748,-8.86895 1.69224,-2.37652 2.54649,-2.73449 6.52635,-2.73449 z"
       transform="matrix(4.1912406,0,0,4.1912406,-493.17603,-479.27996)" />
  </g>
</svg>
