<?xml version="1.0" encoding="UTF-8" standalone="no"?>
<!-- Created with Inkscape (http://www.inkscape.org/) -->

<svg
   version="1.1"
   id="svg1"
   width="151.81006mm"
   height="47.277531mm"
   viewBox="0 0 573.77029 178.68673"
   sodipodi:docname="fstat_logo_no_title.svg"
   inkscape:version="1.3.2 (091e20e, 2023-11-25, custom)"
   xmlns:inkscape="http://www.inkscape.org/namespaces/inkscape"
   xmlns:sodipodi="http://sodipodi.sourceforge.net/DTD/sodipodi-0.dtd"
   xmlns="http://www.w3.org/2000/svg"
   xmlns:svg="http://www.w3.org/2000/svg">
  <defs
     id="defs1">
    <rect
       x="193"
       y="163"
       width="329"
       height="115"
       id="rect4" />
    <clipPath
       clipPathUnits="userSpaceOnUse"
       id="clipPath3">
      <ellipse
         style="opacity:1;fill:#ffffff;fill-opacity:1;fill-rule:evenodd;stroke-width:8.368"
         id="ellipse3"
         cx="218.20154"
         cy="320.71777"
         rx="91.184685"
         ry="89.584953" />
    </clipPath>
  </defs>
  <sodipodi:namedview
     id="namedview1"
     pagecolor="#ffffff"
     bordercolor="#000000"
     borderopacity="0.25"
     inkscape:showpageshadow="2"
     inkscape:pageopacity="0.0"
     inkscape:pagecheckerboard="0"
     inkscape:deskcolor="#d1d1d1"
     inkscape:document-units="mm"
     inkscape:zoom="0.93765746"
     inkscape:cx="286.88515"
     inkscape:cy="89.05171"
     inkscape:window-width="1366"
     inkscape:window-height="705"
     inkscape:window-x="-8"
     inkscape:window-y="-8"
     inkscape:window-maximized="1"
     inkscape:current-layer="g1" />
  <g
     inkscape:groupmode="layer"
     inkscape:label="Image"
     id="g1"
     transform="translate(-127.01686,-228.99984)">
    <path
       id="text4"
       style="font-size:33.2384px;font-family:Counter-Strike;-inkscape-font-specification:'Counter-Strike, Normal';white-space:pre;shape-inside:url(#rect4);opacity:1;fill:#000000;fill-rule:evenodd;stroke-width:35.0723"
       d="m 218.50595,232.20534 c -43.49736,0.24435 -76.43272,25.2697 -87.53909,66.51562 -11.85249,44.01678 13.80369,90.71458 59.15429,107.66991 36.05222,13.4789 82.90957,-4.37025 104.91602,-39.96486 10.16183,-16.43629 11.94143,-23.2305 11.94143,-45.58201 0,-22.35151 -1.7796,-29.14769 -11.94143,-45.58397 -7.40207,-11.97258 -19.28524,-23.85575 -31.25781,-31.25781 -16.48415,-10.19142 -23.1209,-11.92144 -45.27341,-11.79688 z m 23.30078,10.96483 c 10.50124,0.15927 22.48744,6.95092 35.20701,20.0742 10.71336,11.05335 11.95958,14.33689 8.69339,22.92776 -2.27241,5.97679 -8.94608,11.8162 -16.52149,14.45702 -17.50275,6.10148 -19.62574,5.69698 -34.25589,-6.52736 -10.84836,-9.06444 -12.85399,-13.38116 -12.82419,-27.59961 0.0293,-14.049 1.6482,-17.59055 9.72263,-21.2695 3.14238,-1.43177 6.4781,-2.11565 9.97854,-2.06251 z m -47.19144,0.004 c 3.49219,-0.049 6.81999,0.63175 9.94728,2.05664 8.15029,3.71353 9.68751,7.17017 9.68751,21.78708 0,15.15343 -1.73215,18.69402 -13.54881,27.70703 -15.33353,11.69545 -19.00548,12.1717 -36.18948,4.69143 -18.15591,-7.90334 -19.89515,-20.94602 -4.86133,-36.45705 12.52481,-12.92231 24.48837,-19.63864 34.96483,-19.78513 z m 142.2461,52.10739 c -1.57884,0 -3.29876,0.0457 -5.15623,0.13873 -1.85748,0.0931 -3.57547,0.51091 -5.15431,1.25389 -1.48596,0.65015 -2.78591,1.71913 -3.90036,3.20509 -1.1145,1.48596 -1.67189,3.62203 -1.67189,6.4082 v 41.375 h 1.8125 c 2.04319,0 4.0399,-0.13957 5.99025,-0.41787 1.95031,-0.27871 3.6683,-0.88376 5.15426,-1.8125 3.06484,-1.76459 4.59574,-5.10702 4.59574,-10.0293 v -8.35939 h 21.17578 v -11.00389 h -21.17578 v -9.75197 h 29.25582 c 3.62207,0 6.40904,-0.18693 8.35939,-0.55857 2.04323,-0.46439 3.8528,-1.16114 5.43164,-2.08983 1.39312,-0.92874 2.32274,-2.18096 2.78713,-3.7598 0.55722,-1.57884 0.8359,-3.11166 0.8359,-4.59766 z m 72.71878,0 c -2.13611,0 -4.17858,0.23094 -6.12894,0.69533 -1.85743,0.46439 -3.52965,1.20888 -5.01561,2.23049 -1.48596,0.9287 -2.6943,2.18284 -3.62304,3.76168 -0.83586,1.48601 -1.25196,3.24976 -1.25196,5.29299 v 8.77734 c 0,1.85748 0.41619,3.48192 1.25196,4.875 0.92874,1.30021 2.13708,2.41504 3.62304,3.34373 1.48596,0.92874 3.15818,1.62549 5.01561,2.08988 1.95036,0.46435 3.94706,0.69529 5.99025,0.69529 h 37.33398 v 9.89258 h -53.21484 c 0,1.7646 0.46384,3.34323 1.39258,4.73635 1.02161,1.30021 2.27576,2.41307 3.76172,3.34176 1.57884,0.92874 3.34264,1.62549 5.29295,2.08988 2.04323,0.46435 4.13345,0.69726 6.26955,0.69726 h 37.19534 c 5.01515,0 9.05429,-0.88188 12.11914,-2.64648 3.0648,-1.85747 4.59762,-4.64444 4.59762,-8.35939 V 326.348 c 0,-1.7646 -0.50961,-3.29746 -1.53123,-4.59766 -0.92874,-1.39309 -2.18288,-2.50792 -3.76172,-3.34378 -1.48596,-0.83586 -3.25173,-1.43902 -5.29492,-1.81053 -1.95035,-0.37134 -3.99283,-0.55664 -6.12889,-0.55664 h -35.94144 v -9.75197 h 52.6582 c 0,-3.90066 -1.53282,-6.68762 -4.59762,-8.35934 -2.97197,-1.7646 -6.96534,-2.64652 -11.9805,-2.64652 z m 75.22849,0 c -3.90066,0 -6.92053,0.69675 -9.05664,2.08988 -2.13607,1.30021 -3.20311,3.76072 -3.20311,7.38279 v 1.53319 h 26.88672 v 41.37501 h 5.1543 c 4.8294,0 8.12602,-0.83607 9.89062,-2.50779 1.7646,-1.67172 2.64647,-4.45872 2.64647,-8.35939 v -30.50783 h 12.25976 c 1.11449,0 2.46219,-0.0478 4.04103,-0.14082 1.67172,-0.0931 3.25035,-0.37177 4.73635,-0.83594 1.48596,-0.55723 2.74011,-1.39334 3.76168,-2.50779 1.11449,-1.20737 1.66996,-2.92536 1.66996,-5.15431 v -2.36721 z m 83.02735,0 c -2.13607,0 -4.17854,0.23094 -6.1289,0.69533 -1.85747,0.46439 -3.52965,1.1611 -5.01561,2.08983 -1.48601,0.92874 -2.64656,2.13708 -3.48242,3.62308 -0.83586,1.39308 -1.25394,3.11107 -1.25394,5.15426 v 40.81837 h 1.11525 c 2.22895,0 4.36501,-0.23303 6.4082,-0.69726 2.04323,-0.55722 3.80699,-1.29978 5.29299,-2.22852 1.57884,-1.02162 2.73944,-2.22995 3.48242,-3.62303 0.83586,-1.39309 1.25389,-3.34206 1.25389,-5.84964 v -8.22069 H 604.754 v 20.61914 h 17.6914 v -52.38068 z m 75.22853,0 c -3.9007,0 -6.9186,0.69675 -9.05471,2.08988 -2.13607,1.30021 -3.20504,3.76072 -3.20504,7.38279 v 1.53319 h 26.88668 v 41.37501 h 5.1543 c 4.82944,0 8.12606,-0.83607 9.89062,-2.50779 1.76459,-1.67172 2.64844,-4.45872 2.64844,-8.35939 v -30.50783 h 12.25783 c 1.11449,0 2.46215,-0.0478 4.04103,-0.14082 1.67172,-0.0931 3.25035,-0.37177 4.73631,-0.83594 1.48596,-0.55723 2.74011,-1.39334 3.76172,-2.50779 1.11449,-1.20737 1.67189,-2.92536 1.67189,-5.15431 v -2.36721 z m -73.55665,11.00586 H 604.754 v 9.75197 h -35.24611 z m -288.33593,0.0683 c 12.66978,0.15843 19.88865,6.67283 19.88865,18.49025 0,15.976 -11.27092,42.76582 -19.94528,47.40821 -12.35473,6.61206 -18.92852,4.27481 -28.78908,-10.23635 -8.43982,-12.42024 -9.06549,-15.77118 -5.34375,-28.60937 5.77272,-19.91325 8.8485,-23.18372 24.56838,-26.1328 3.48263,-0.65333 6.69727,-0.95649 9.62108,-0.91994 z m -125.83987,0.004 c 2.87335,-0.0335 6.04549,0.26656 9.50783,0.916 15.71443,2.94807 18.79634,6.22231 24.55665,26.09571 3.74584,12.92335 3.11015,16.04143 -5.83203,28.60936 -15.18662,21.34419 -30.665,17.51595 -42.18555,-10.43162 -11.65856,-28.28236 -6.16007,-44.94648 13.9531,-45.18945 z m 62.86329,46.04883 c 16.68055,0 20.26096,1.50033 27.35355,11.4609 8.74636,12.28319 10.20189,22.6073 4.46677,31.66994 -3.77903,5.97172 -44.63592,10.02259 -55.49609,5.50196 -14.01304,-5.83307 -15.47478,-20.60447 -3.67773,-37.1719 7.09258,-9.96057 10.67295,-11.4609 27.3535,-11.4609 z"
       clip-path="url(#clipPath3)"
       transform="translate(162.1061)" />
  </g>
</svg>
